<svg width="64" height="64" viewBox="0 0 64 64" fill="none" xmlns="http://www.w3.org/2000/svg">
<path fill-rule="evenodd" clip-rule="evenodd" d="M32 54C44.1503 54 54 44.1503 54 32C54 19.8497 44.1503 10 32 10C19.8497 10 10 19.8497 10 32C10 44.1503 19.8497 54 32 54ZM31.9951 20.5625C34.9071 20.5625 37.6473 21.6904 39.7049 23.7412C41.7625 25.792 43 28.5117 43 31.4072C43 37.3838 38.0009 42.2471 31.9951 42.2471H31.9902C30.1634 42.2471 28.371 41.793 26.7799 40.9287L21 42.4375L22.5469 36.8223C21.5942 35.1768 21.0933 33.3115 21.0933 31.4023C21.0933 25.4258 25.9844 20.5625 31.9951 20.5625ZM27.379 39.166C28.7687 39.9863 30.3647 40.4209 31.9951 40.4209C36.9893 40.4209 41.1585 36.3779 41.1585 31.4072C41.1634 29 40.1125 26.7393 38.4036 25.0352C36.6946 23.3311 34.421 22.3936 32 22.3936C27.0009 22.3936 22.9348 26.4365 22.9348 31.4023C22.9348 33.1064 23.4112 34.7617 24.3196 36.1973L24.5357 36.5391L23.6223 39.8643L27.05 38.9707L27.379 39.166ZM35.1036 32.7939C35.354 32.8818 36.6946 33.5361 36.9647 33.6729C37.009 33.6944 37.0508 33.7143 37.0902 33.733C37.2912 33.8285 37.427 33.893 37.4804 33.9951C37.5491 34.1074 37.5491 34.6494 37.3232 35.2842C37.0973 35.9189 36.0121 36.4951 35.4866 36.5732C34.6223 36.7002 33.9446 36.6367 32.2161 35.8945C29.669 34.7987 27.948 32.3522 27.6122 31.8749C27.5874 31.8397 27.5702 31.8152 27.5607 31.8027C27.5573 31.798 27.5533 31.7926 27.5487 31.7864C27.3781 31.5551 26.4509 30.2984 26.4509 29C26.4509 27.7547 27.0638 27.1017 27.3486 26.7983C27.3687 26.7769 27.3871 26.7572 27.4036 26.7393C27.654 26.4707 27.9487 26.4023 28.1304 26.4023C28.3121 26.4023 28.4937 26.4023 28.6509 26.4121C28.6711 26.4133 28.6923 26.4133 28.7141 26.4132C28.8726 26.4129 29.0706 26.4126 29.2647 26.876C29.3315 27.0361 29.426 27.2652 29.528 27.5122C29.7711 28.1011 30.056 28.7914 30.1045 28.8877C30.1732 29.0244 30.2174 29.1807 30.129 29.3613C29.8975 29.8217 29.6582 30.0706 29.4885 30.2471C29.2766 30.4675 29.1731 30.5751 29.3286 30.8408C30.3844 32.6426 31.4353 33.2676 33.0362 34.0635C33.3063 34.2002 33.4683 34.1758 33.6254 33.9951C33.7875 33.8096 34.308 33.2041 34.4897 32.9307C34.6714 32.6572 34.8531 32.7012 35.1036 32.7939Z" fill="black"/>
</svg>
